<svg width="23" height="24" viewBox="0 0 23 24" fill="none" xmlns="http://www.w3.org/2000/svg">
<g clip-path="url(#clip0_185_12)">
<path d="M19.0102 9.46599L19.0364 9.43886L20.2189 8.25683C20.285 8.19076 20.3374 8.11231 20.3732 8.02597C20.4089 7.93963 20.4273 7.8471 20.4273 7.75364C20.4273 7.66019 20.4089 7.56765 20.3732 7.48131C20.3374 7.39498 20.285 7.31653 20.2189 7.25046L19.2103 6.24186C19.1442 6.17577 19.0658 6.12334 18.9794 6.08758C18.8931 6.05181 18.8005 6.0334 18.7071 6.0334C18.6136 6.0334 18.5211 6.05181 18.4348 6.08758C18.3484 6.12334 18.27 6.17577 18.2039 6.24186L17.1064 7.3394C15.8331 6.29289 14.3019 5.60799 12.6731 5.35645V3.8222H14.0961C14.2848 3.8222 14.4658 3.74724 14.5993 3.6138C14.7327 3.48036 14.8077 3.29938 14.8077 3.11067V1.68761C14.8077 1.4989 14.7327 1.31792 14.5993 1.18448C14.4658 1.05104 14.2848 0.976074 14.0961 0.976074H8.40388C8.21535 0.976661 8.03471 1.05181 7.9014 1.18513C7.76808 1.31844 7.69293 1.49908 7.69234 1.68761V3.11067C7.69293 3.2992 7.76808 3.47984 7.9014 3.61315C8.03471 3.74646 8.21535 3.82162 8.40388 3.8222H9.82694V5.35645C7.69499 5.68758 5.74595 6.75383 4.31731 8.37057C2.88866 9.98731 2.07036 12.0527 2.00409 14.2092C1.85066 19.2758 6.03625 23.666 11.1041 23.7451C16.281 23.8238 20.4999 19.6538 20.4999 14.4952C20.5041 12.7094 19.9863 10.9614 19.0102 9.46599ZM10.377 17.766C10.4737 17.7646 10.5669 17.8016 10.6363 17.8689C10.7057 17.9362 10.7455 18.0283 10.747 18.1249V19.117C10.7455 19.2137 10.7057 19.3058 10.6363 19.3731C10.5669 19.4403 10.4737 19.4773 10.377 19.4759H6.69264C6.59146 19.4771 6.49113 19.4573 6.39799 19.4177C6.30485 19.3782 6.22092 19.3197 6.15151 19.2461C6.0821 19.1724 6.02871 19.0852 5.99471 18.9899C5.96071 18.8946 5.94684 18.7933 5.95398 18.6923C6.07761 17.1261 6.60637 16.1393 7.66388 14.629C8.57198 13.3309 8.86904 12.9694 8.86904 11.8567C8.86904 11.1043 8.78944 10.7774 8.32605 10.7774C7.90847 10.7774 7.76172 11.1065 7.76172 11.786V12.0186C7.76097 12.0665 7.75079 12.1138 7.73176 12.1577C7.71274 12.2017 7.68524 12.2415 7.65084 12.2748C7.61644 12.3081 7.57581 12.3343 7.53127 12.352C7.48674 12.3696 7.43917 12.3783 7.39128 12.3775H6.28396C6.23607 12.3783 6.18849 12.3696 6.14396 12.352C6.09942 12.3343 6.0588 12.3081 6.0244 12.2748C5.99 12.2415 5.9625 12.2017 5.94347 12.1577C5.92445 12.1138 5.91427 12.0665 5.91351 12.0186V11.8376C5.91351 10.6236 6.29063 9.1587 8.423 9.1587C10.3352 9.1587 10.8942 10.3083 10.8942 11.8714C10.8942 13.4537 10.341 14.1488 9.36667 15.4873C8.85259 16.1544 8.27224 17.0692 8.1922 17.7642L10.377 17.766ZM16.5865 16.644C16.5865 18.2076 16.0395 19.4759 14.0414 19.4759C12.1034 19.4759 11.6058 18.1631 11.6058 16.6542V11.9701C11.6058 10.1588 12.4765 9.1587 14.105 9.1587C15.7416 9.1587 16.5865 10.1655 16.5865 11.8848V16.644ZM14.0904 10.8366C13.6719 10.8366 13.502 11.1701 13.502 11.726V16.8824C13.502 17.4654 13.6617 17.798 14.0904 17.798C14.5191 17.798 14.6685 17.4423 14.6685 16.8521V11.6962C14.6694 11.195 14.5355 10.8366 14.0904 10.8366Z" fill="#EEF1F5"/>
</g>
<defs>
<clipPath id="clip0_185_12">
<rect y="0.976074" width="23" height="23" rx="11.5" fill="white"/>
</clipPath>
</defs>
</svg>
